<?xml version="1.0" encoding="UTF-8" standalone="no"?>
<!DOCTYPE svg PUBLIC "-//W3C//DTD SVG 1.1//EN" "http://www.w3.org/Graphics/SVG/1.1/DTD/svg11.dtd">
<svg width="100%" height="100%" viewBox="0 0 282 201" version="1.1" xmlns="http://www.w3.org/2000/svg" xmlns:xlink="http://www.w3.org/1999/xlink" xml:space="preserve" xmlns:serif="http://www.serif.com/" style="fill-rule:evenodd;clip-rule:evenodd;stroke-linejoin:round;stroke-miterlimit:2;">
    <g transform="matrix(1,0,0,1,0.00217,0)">
        <g transform="matrix(1.481675,0,0,1.481481,0,0)">
            <rect x="27.153" y="0" width="27.169" height="27.089" style="fill:white;fill-rule:nonzero;"/>
        </g>
        <g transform="matrix(1.481675,0,0,1.481481,0,0)">
            <rect x="135.815" y="0" width="27.169" height="27.089" style="fill:white;fill-rule:nonzero;"/>
        </g>
        <g transform="matrix(1.481675,0,0,1.481481,0,0)">
            <rect x="27.153" y="27.091" width="54.329" height="27.089" style="fill:white;fill-rule:nonzero;"/>
        </g>
        <g transform="matrix(1.481675,0,0,1.481481,0,0)">
            <rect x="108.661" y="27.091" width="54.329" height="27.089" style="fill:white;fill-rule:nonzero;"/>
        </g>
        <g transform="matrix(1.481675,0,0,1.481481,0,0)">
            <rect x="27.153" y="54.168" width="135.819" height="27.089" style="fill:white;fill-rule:nonzero;"/>
        </g>
        <g transform="matrix(1.481675,0,0,1.481481,0,0)">
            <rect x="27.153" y="81.259" width="27.169" height="27.09" style="fill:white;fill-rule:nonzero;"/>
        </g>
        <g transform="matrix(1.481675,0,0,1.481481,0,0)">
            <rect x="81.492" y="81.259" width="27.169" height="27.09" style="fill:white;fill-rule:nonzero;"/>
        </g>
        <g transform="matrix(1.481675,0,0,1.481481,0,0)">
            <rect x="135.815" y="81.259" width="27.169" height="27.09" style="fill:white;fill-rule:nonzero;"/>
        </g>
        <g transform="matrix(1.481675,0,0,1.481481,0,0)">
            <rect x="-0.001" y="108.339" width="81.489" height="27.09" style="fill:white;fill-rule:nonzero;"/>
        </g>
        <g transform="matrix(1.481675,0,0,1.481481,0,0)">
            <rect x="108.661" y="108.339" width="81.498" height="27.09" style="fill:white;fill-rule:nonzero;"/>
        </g>
    </g>
</svg>
